<svg xmlns="http://www.w3.org/2000/svg" width="360" height="400" fill="none"><path fill="#000" d="M133 153h-2v2h2v-2ZM147 153h-12v2h12v-2ZM133 157h-2v2h2v-2ZM147 157h-12v2h12v-2ZM133 161h-2v2h2v-2ZM147 161h-12v2h12v-2ZM133 165h-2v2h2v-2ZM147 165h-12v2h12v-2ZM173 165h-16v2h16v-2ZM171 155v6h-12v-6h12Zm2-2h-16v10h16v-10ZM187 153h-4v6h4v-6ZM199 153h-4v6h4v-6ZM193 153h-4v6h4v-6ZM187 161h-4v6h4v-6ZM199 161h-4v6h4v-6ZM193 161h-4v6h4v-6Z"/><rect width="111" height="59" x="109.5" y="130.5" stroke="#7B61FF" stroke-dasharray="10 5" rx="4.5"/><path fill="#83B3D3" d="M261 151c-2.2 0-4 1.8-4 4v2h-3v4h3v8h4v-8h3v-4h-3v-2h3v-4h-3ZM285.6 152.2c1.8-.5 3.2.3 3.8 1.2.7-.2 1.4-.5 2.1-.7 0 .9-.6 1.5-.9 1.8.7.1 1.4-.6 1.4-.6-.2 1-1.1 1.8-1.7 2-.2 6.8-3.3 11.2-10.6 11.1h-.5c-.4 0-4.4-.5-5.2-1.9 2.4.2 4.1-.4 5-1.2-1-.3-2.9-.4-3.2-2.9.4.1.6.2 1.3.1-1.3-.8-2.7-1.6-2.6-3.8.3.3 1.1.5 1.4.5-.8-.2-2.1-3.3-1-4.9 1.9 1.9 4 3.6 7.6 3.8.2-2.4 1.2-3.9 3.1-4.5Z"/><path fill="#83B3D3" fill-rule="evenodd" d="M319.81 153.42c.87.23 1.54.9 1.77 1.77.42 1.56.42 4.81.42 4.81s0 3.25-.42 4.81a2.5 2.5 0 0 1-1.77 1.77c-1.56.42-7.81.42-7.81.42s-6.25 0-7.81-.42a2.5 2.5 0 0 1-1.77-1.77C302 163.25 302 160 302 160s0-3.25.42-4.81a2.5 2.5 0 0 1 1.77-1.77c1.56-.42 7.81-.42 7.81-.42s6.25 0 7.81.42ZM315.2 160l-5.2 3v-6l5.2 3Z" clip-rule="evenodd"/><rect width="112" height="59" x="229.5" y="130.5" stroke="#7B61FF" stroke-dasharray="10 5" rx="4.5"/><path fill="#000" d="m76 155-6.5 7.4-3.4-3.9-1.1 1.2 4.5 5.2 7.7-8.6L76 155ZM43 160a5 5 0 1 1 10 0 5 5 0 0 1-10 0Z"/><rect width="82" height="59" x="18.5" y="130.5" stroke="#7B61FF" stroke-dasharray="10 5" rx="4.5"/><path fill="#000" fill-rule="evenodd" d="M80 28.38 42.44 65.94l2.12 2.12L52 60.62V98h-4v3h65v-3h-5V60.62l7.44 7.44 2.12-2.12-9.56-9.56V29H94v13.38l-14-14Zm17 17 8 8V32h-8v13.38Zm8 12.24-25-25-25 25V98h50V57.62ZM72 70v24h16V70H72Zm3 21V73h10v18H75ZM59 70h3v4h-3v-4Zm9 0h-3v4h3v-4Zm-9 6h3v4h-3v-4Zm9 0h-3v4h3v-4Zm24-6h3v4h-3v-4Zm9 0h-3v4h3v-4Zm-9 6h3v4h-3v-4Zm9 0h-3v4h3v-4ZM75 56a5 5 0 1 1 10 0 5 5 0 0 1-10 0Zm5-8a8 8 0 1 0 0 16 8 8 0 0 0 0-16Z" clip-rule="evenodd"/><path fill="#000" d="M204.9 77.7H139.1c-2.3 0-4.1 1.9-4.1 4.3v3.5c0 2.4 1.9 4.3 4.1 4.3h.9v1.1c0 5.5 4.3 10.1 9.6 10.1h44.6c5.3 0 9.6-4.5 9.6-10.1v-1.1h.9c2.3 0 4.1-1.9 4.1-4.3V82a4 4 0 0 0-3.9-4.3ZM201 90.9c0 3.9-3 7-6.7 7h-44.7c-3.7 0-6.7-3.2-6.7-7v-1.1H201v1.1Zm5.1-5.4c0 .7-.6 1.3-1.2 1.3H139c-.7 0-1.2-.6-1.2-1.3V82c0-.7.6-1.3 1.2-1.3h65.8c.7 0 1.2.6 1.2 1.3.1 0 .1 3.5.1 3.5ZM150.6 69.4l5.4 4.1 5.3-4.1 5.3 4.1 5.3-4.1 5.4 4.1 5.3-4.1 5.3 4.1 5.4-4.1 5.3 4.1 6.2-4.7-1.7-2.5-4.5 3.4-5.3-4.1-5.4 4.1-5.3-4.1-5.3 4.1-5.4-4.1-5.3 4.1-5.3-4.1-5.3 4.1-5.4-4.1-5.3 4.1-4.5-3.4-1.7 2.5 6.2 4.7 5.3-4.1ZM143 62.5h60.8c0-.6.1-1.2.1-1.9v-1.2C203.2 43.7 189.2 31 172 31c-17.3 0-31.3 12.7-32 28.5v1.2c0 .6 0 1.3.1 1.9h2.9v-.1ZM172 34c15.6 0 28.4 11.3 29 25.5h-58c.6-14.1 13.4-25.5 29-25.5Z"/><path fill="#000" d="M172 48.3c1.05 0 1.9-.9 1.9-2s-.85-2-1.9-2c-1.05 0-1.9.9-1.9 2s.85 2 1.9 2ZM164.2 43.2c1.05 0 1.9-.9 1.9-2s-.85-2-1.9-2c-1.05 0-1.9.9-1.9 2s.85 2 1.9 2ZM179.7 43.2c1.05 0 1.9-.9 1.9-2s-.85-2-1.9-2c-1.05 0-1.9.9-1.9 2s.85 2 1.9 2ZM293.1 47.5h-24.8c13.8-6.9 14.9-11.3 14.4-13.7-1.2-4-5.7-7-10-5.4-5.6 2.1-7.1 10.4-8.6 16.4-2-6.1-3.8-13.8-8.2-17.7-1.3-1.1-3.1-2.3-5.8-2-4 .4-9.8 5.4-7.5 11 2.3 5.4 9.7 8.8 14.6 11.5h-22.3a2.9 2.9 0 0 0-2.9 2.9v11.3c0 1.6 1.3 2.9 2.9 2.9h.3V101H293V64.6h.1c1.6 0 2.9-1.3 2.9-2.9V50.4c0-1.6-1.3-2.9-2.9-2.9Zm-18.7-16.6c2.1-.3 5 1.3 5.3 3.2.4 2.8-3.4 5.3-5.1 6.4-2.5 1.7-4.9 2.6-7.3 4.1.9-3.7 2.5-13 7.1-13.7Zm-22.9 10c-2.2-1.5-6.5-4.4-6.4-7.8.1-3.6 5.7-6.6 8.8-3.9 3.9 3.4 5.7 11.1 7.1 16.6-3.2-1.5-6.3-2.8-9.5-4.9Zm6 57.1h-19.4V64.6h19.4V98Zm0-36.5H235v-11h22.5v11Zm10.2 0V98h-7.2V50.6h7.2v10.9ZM290 98h-19.4V64.6H290V98Zm2.9-36.5h-22.3v-11h22.3v11Z"/><rect width="307" height="123" x="18.5" y=".5" stroke="#7B61FF" stroke-dasharray="10 5" rx="4.5"/><path fill="#000" d="M97.75 228c.3 0 .5-.2.5-.5s-.2-.5-.5-.5-.5.2-.5.5.2.5.5.5Z"/><path fill="#000" d="M107 220h-2v-2h-1v2h-8v-2h-1v2h-2c-.6 0-1 .4-1 1v11c0 .5.4 1 1 1h14c.5 0 1-.5 1-1v-11c0-.6-.5-1-1-1Zm0 12H93v-7h14v7Zm-14-8v-3h2v2h1v-2h8v2h1v-2h2v3H93Z"/><path fill="#000" d="M100 228c.3 0 .5-.2.5-.5s-.2-.5-.5-.5-.5.2-.5.5.2.5.5.5ZM102.25 228c.3 0 .5-.2.5-.5s-.2-.5-.5-.5-.5.2-.5.5.2.5.5.5ZM97.75 229c-.3 0-.5.2-.5.5s.2.5.5.5.5-.2.5-.5-.2-.5-.5-.5ZM95.5 228c.3 0 .5-.2.5-.5s-.2-.5-.5-.5-.5.2-.5.5.2.5.5.5ZM95.5 229c-.3 0-.5.2-.5.5s.2.5.5.5.5-.2.5-.5-.2-.5-.5-.5ZM100 229c-.3 0-.5.2-.5.5s.2.5.5.5.5-.2.5-.5-.2-.5-.5-.5ZM102.25 229c-.3 0-.5.2-.5.5s.2.5.5.5.5-.2.5-.5-.2-.5-.5-.5ZM104.5 228c.3 0 .5-.2.5-.5s-.2-.5-.5-.5-.5.2-.5.5.2.5.5.5ZM104.5 229c-.3 0-.5.2-.5.5s.2.5.5.5.5-.2.5-.5-.2-.5-.5-.5ZM185.3 220.3h-14.7c-.3 0-.6.2-.6.5s.3.6.6.6h1.7v12c0 .3.3.6.6.6h10.2c.3 0 .6-.3.6-.6v-12h1.7c.3 0 .6-.3.6-.6s-.4-.5-.7-.5Zm-2.8 12.5h-9.1v-11.4h9.1v11.4ZM176.2 219.2h3.4c.3 0 .6-.3.6-.6s-.2-.6-.5-.6h-3.5c-.3 0-.5.3-.5.6s.2.6.5.6Z"/><path fill="#000" d="M176.2 230c.3 0 .6-.3.6-.6v-5.7c0-.3-.3-.6-.6-.6s-.6.3-.6.6v5.7c.1.3.3.6.6.6ZM179.7 230c.3 0 .6-.3.6-.6v-5.7c0-.3-.3-.6-.6-.6s-.6.4-.6.6v5.7c0 .3.2.6.6.6Z"/><path fill="#000" fill-rule="evenodd" d="M224.22 223.34c.3-.29.77-.29 1.06 0l4.72 4.72 4.72-4.72a.75.75 0 1 1 1.06 1.06l-5.25 5.25c-.3.3-.77.3-1.06 0l-5.25-5.25a.75.75 0 0 1 0-1.06Z" clip-rule="evenodd"/><path fill="#000" d="M151.9 235a.9.9 0 0 1-.8-.4c-5.4-6.1-6.7-7.5-7-7.9a5.4 5.4 0 0 1 4.4-8.7c1.3 0 2.5.5 3.5 1.3a5.46 5.46 0 0 1 9 4.1c0 1.3-.5 2.5-1.3 3.4l-7 7.9c-.2.2-.4.3-.8.3Zm-6-9.5c.3.4 3.5 4 6.1 6.9l6.2-7c.5-.5.7-1.2.7-2 0-1.8-1.5-3.3-3.3-3.3-1 0-2 .5-2.7 1.3-.3.3-.6.4-.9.4-.3 0-.6-.2-.8-.4-.7-.8-1.7-1.3-2.7-1.3-1.8 0-3.3 1.5-3.3 3.3-.1.9.3 1.6.7 2.1-.1 0-.1 0 0 0ZM256 219l-6 5.8v6.2h12v-6.2l-6-5.8Zm5 11h-10v-4.8l5-4.8 5 4.8v4.8Z"/><path fill="#000" d="M254 229h1v-2.5h2v2.5h1v-3.5h-4v3.5Z"/><path fill="#000" fill-rule="evenodd" d="M307 220h2v2h-2v-2Zm2 12h-2v-9h2v9Z" clip-rule="evenodd"/><path fill="#000" d="M67 225v2h14v-2H67ZM211 220.3l-1.3-1.3-5.7 5.7-5.7-5.7-1.3 1.3 5.7 5.7-5.7 5.7 1.3 1.3 5.7-5.7 5.7 5.7 1.3-1.3-5.7-5.7 5.7-5.7ZM55 225h-6v-6h-2v6h-6v2h6v6h2v-6h6v-2ZM135.5 234l-3.7-3.67c1-1.3 1.7-2.99 1.7-4.87a8 8 0 0 0-8-7.96c-4.4 0-8 3.68-8 8.06a8 8 0 0 0 12.9 6.26l3.7 3.68 1.4-1.5Zm-10-2.48a6 6 0 0 1-6-5.97 6 6 0 0 1 12 0 6 6 0 0 1-6 5.97ZM282 218l2.1 6.5h6.9l-5.6 4 2.2 6.5-5.6-4-5.6 4 2.2-6.5-5.6-4h6.9l2.1-6.5Z"/><rect width="323" height="60" x="18.5" y="196.5" stroke="#7B61FF" stroke-dasharray="10 5" rx="4.5"/><g clip-path="url(#a)"><path fill="#000" fill-rule="evenodd" d="M46 296.2c.8-1 2-1.7 3.6-1.7 2.7 0 4.6 1.9 4.5 4.9v6.1h-2v-5.7c0-1.8-1.1-3.2-2.9-3.2-2 0-3.3 1.5-3.3 3.6v5.3h-2V290h2v6.2h.1Zm-8 9.3v-2.6h2.5v2.6H38Zm26.6-10.7h-4.8v-3.7h-2v3.8h-1.9v2h1.9v6c0 1.7 1 2.7 2.7 2.7h4.1v-2h-3.7c-.7 0-1.1-.4-1.1-1.1v-5.7h4.8v-2Zm11 1.9c.6-1.3 1.9-2.1 3.5-2.1 2.5 0 4 1.8 3.9 4.3v6.5h-2v-6.3c0-1.6-.9-2.6-2.4-2.6-1.2 0-2.6.9-2.6 3.3v5.6h-2v-6.3c0-1.6-.9-2.6-2.4-2.6-1.6 0-2.6 1.5-2.6 3.5v5.4h-2v-10.6h1.9v1.6h.1c.6-1 1.7-1.8 3.1-1.8 1.6 0 2.8.9 3.4 2.1h.1Zm10.2 6c0 1.7 1 2.7 2.8 2.7h2v-2h-1.7c-.7 0-1.1-.4-1.1-1.1V290h-2v12.7ZM63 307.9c1.7 0 3 .7 3.9 1.8v-1.5h2v10.6h-2v-1.6h-.1c-.8 1.1-2 1.9-3.8 1.9-3.1 0-5.4-2.3-5.4-5.6s2.3-5.6 5.4-5.6Zm-3.3 5.6c0 2 1.4 3.6 3.6 3.6s3.6-1.7 3.6-3.6c0-2-1.4-3.6-3.6-3.6s-3.6 1.6-3.6 3.6Zm22.5-1.5c-.5-2.4-2.6-4.1-5.4-4.1a5.4 5.4 0 0 0-5.6 5.6c0 3.1 2.2 5.6 5.6 5.6 2.8 0 4.9-1.8 5.4-4.2h-2.1a3.4 3.4 0 0 1-3.3 2.3c-2.2 0-3.6-1.6-3.6-3.6s1.4-3.6 3.6-3.6c1.6 0 2.8 1 3.3 2.2h2.1v-.2Zm7-4.1c1.7 0 3 .7 3.9 1.8v-1.5h2v10.6h-2v-1.6H93c-.8 1.1-2 1.9-3.8 1.9-3.1 0-5.4-2.3-5.4-5.6s2.3-5.6 5.4-5.6Zm-3.3 5.6c0 2 1.4 3.6 3.6 3.6 2.1 0 3.6-1.7 3.6-3.6 0-2-1.4-3.6-3.6-3.6s-3.6 1.6-3.6 3.6Zm20.8-3.7c-.9-1.1-2.2-1.9-3.9-1.9-3.1 0-5.4 2.3-5.4 5.6s2.2 5.6 5.4 5.6c1.7 0 3-.8 3.8-1.8h.1v1.5h2v-15.4h-2v6.4Zm-3.6 7.3c-2.2 0-3.6-1.6-3.6-3.6s1.4-3.6 3.6-3.6 3.6 1.6 3.6 3.6c-.1 2-1.5 3.6-3.6 3.6Zm7.7-3.6c0-3.1 2.2-5.6 5.5-5.6 3.5 0 5.7 2.7 5.5 6.3H113c.1 1.6 1.5 2.9 3.4 2.9 1.4 0 2.5-.6 3-1.6h2.1c-.7 2.3-2.7 3.6-5.2 3.6-3.4 0-5.5-2.6-5.5-5.6Zm8.8-1.1c-.3-1.6-1.6-2.6-3.3-2.6-1.7 0-2.9 1.1-3.2 2.6h6.5Zm16.6-4.5c-1.6 0-2.9.8-3.6 2h-.1c-.6-1.2-1.8-2-3.4-2-1.4 0-2.5.7-3.1 1.8v-1.5h-1.9v10.6h2v-5.4c0-2 1-3.4 2.6-3.5 1.5 0 2.4 1 2.4 2.6v6.3h2v-5.6c0-2.4 1.4-3.3 2.6-3.3 1.5 0 2.4 1 2.4 2.6v6.3h2v-6.5c.1-2.6-1.4-4.4-3.9-4.4Zm7.6.2 3.6 8.9 3.4-8.9h2.1l-4.7 12.2c-.7 1.8-1.7 2.6-3.5 2.6h-2.5v-2h2.5c1 0 1.4-.3 1.7-1.2l-4.8-11.6h2.2Z" clip-rule="evenodd"/></g><g clip-path="url(#b)"><path fill="#81B3D3" d="M311 283H173l59.5 65.7c5.2 5.8 13.8 5.8 19 0L311 283Z"/><path fill="#23A9E1" d="m209.7 283.5 32.1 37.9 32-37.7-64.1-.2Z"/><path fill="#fff" d="M234.1 297.7h17.3c-1.3-.8-4.4-4.6-6-3.2-.1.1-4.9-5.7-8-2.9-2.7 2.5-4-.3-7 1.6-3.6 2.4 2 3.7 3.7 4.5Zm26.7-3.5-9.8.1c3.9-4.5 5.6-4 9.8-.1Z"/><path fill="#491213" d="M270.6 286.6v-2.4h2.1l-2.1 2.4Zm-49.2 9.4c.1.1 2.4-2.4 6.1-4.9 3.4-2.3 8.6-4.9 14.4-4.9 5.8 0 11.1 2.7 14.5 5 3.7 2.4 6 4.8 6.1 4.9l-2.5 3c-4.5.6-7.7 3.9-12.1 3.2-2.2-.4-2.3-1.6-2.9-2.9-.5-1-1.3-.8-2.3-1.2-.9-.4-1.5-1.1-3.4-.7-1.6.4-1.8 2.9-3.9 2.8-1.1-.1-1.2-1.6-2.8-3.6-4.1-4.9-7.84-4.29-10.44.21l-.76-.91Zm-8.4-11.8v1.9l-1.6-1.9h1.6Zm53.9 0h3.2v3l-3.2 3.8v-6.8Zm-4.1 11.4v-11.4h3.5v7.4l-3.5 4Zm-.5-10.4v9.9c-1.1-1.1-2.3-2.1-3.6-3l3.6-6.9Zm-4.1-.3v6.8c-.5-.3-.9-.7-1.5-1-.7-.4-1.4-.9-2.2-1.3l3.7-4.5Zm-4.4-.2v4.3c-1-.5-2.1-1-3.1-1.5l3.1-2.8Zm.6-.5h3.7l-3.7 4.6v-4.6Zm4.3 0h3.6l-3.6 7.1v-7.1Zm-8.8 0h3.9l-3.5 3.1c-.1 0-.2-.1-.3-.1l-.1-3Zm-.5.4v2.4c-1-.4-2-.7-3.1-.9l3.1-1.5Zm-4.2 0v1.3l-2.2-.3 2.2-1Zm-6.8 0 2.2 1c-.8 0-1.5.1-2.2.3v-1.3Zm-4.1 0 3.1 1.5c-1.1.2-2.1.5-3.1.9v-2.4Zm3.6 1.2-3.3-1.6h3.3v1.6Zm3.5-.4-2.8-1.3h2.8v1.3Zm.7-1.2h2.9l-2.9 1.3v-1.3Zm3.7 0h3.2l-3.2 1.6v-1.6Zm-12.4 3.1-3.5-3.1h3.9v3l-.4.1Zm-3.6-2.6 3.1 2.7c-1.1.4-2.1.9-3.1 1.5v-4.2Zm-4.3.2 3.6 4.5c-1.3.7-2.5 1.5-3.6 2.4v-6.9Zm-4.2.3 3.6 7c-1.3 1-2.5 2-3.6 3.2v-10.2Zm3.7 6-3.6-7.1h3.6v7.1Zm4.3-2.5-3.7-4.6h3.7v4.6Zm-12.6 1.8-3.2-3.8v-2.5h3.2v6.3Zm.6-6.3h3.5v11.2l-3.5-4.2v-7ZM209 283v14.6l33 39.9 33-39.5v-15h-66Z"/><path fill="#23A9E1" d="m239.4 329 2.6-4.2 2.6 4.2-2.6 4.2-2.6-4.2Z"/><path fill="#DC6243" d="M247.2 313.6c-3.4-2-2.6-3.5.2-4.9 1.5-.7 4.8-3.4 6.1-2.5l-6.3 7.4Zm-2.3 2.5c-2-.1-4.3-.4-6.3.1 1.2.3 4.2 1.2 1.4 1.9 1 1.4 2.6 1.3 3.6.1-.4-.2-.7-.5-1-.7 1.1-.3 2.1-.9 2.3-1.4Zm1.2-1.6c-.9-.8-1.9-.8-2.7 0-1.2-2.1-5.4-1.4-7.4-1.7 1.1 2.6 9.6 3.1 10.1 1.7Zm-6.8-2.2c-1.6-.5-6.8-.4-3.4-1.8 1.1-.4 6.7.1 3.4 1.8Zm2-3c-.5-1.1.4-2.4 1.7-1.4 1.2.8-.6 2-1.7 1.4Zm-2.9.1c-2.3.7-5.3-.8-1.6-1.5 2.3-.5 4.7.5 1.6 1.5.1 0-.1 0 0 0Zm-2.6-6.2c-.5 1.6-1.5 1.9-1.4 0 .1-2.3 1.6-1.7 3.2-2.6 1.3-.7 2-3.4 4.3-1.8 1 .7 2.2.1 2.5 1.2 0-.1-2.9 6.7-1.3 6.7-3.2 0-1.8-3.8-.6-6.4-1.2.6-3.1 4.3-1.5 5-.8 1.1-3.4 2.6-4.7 1.5-1.1-1-.5-2.3-.5-3.6Zm-4 2.8c-5.6 0-1.8-8.6.1-8.1 2.2.7 1.9 8.2-.1 8.1Zm-6.2-8.2c-2.6-.1-1.5-2.6.3-3.1 1.7-.5 5.2 1.1 6.4 2.2-1.8.6-4.1.5-6.1.6-.2-2-.7-1.3-.6.3Z"/><path fill="#F49774" d="M244.8 308.8c-2.9-3 4.3-2.7 5.5-3.8.8.3 7-5.4 8.5-5-1.1 1.3-3.4 5.3-5 5.3-1.3 0-2.6-.2-3.6.7-1.5 1.4-3.9 2.1-5.4 2.8Z"/><path fill="#F4B1A4" d="M245.7 305.2c-1.6.9-3.1-2.5-.3-2.2 1.8.2 3.7-.2 5.4.1a5.86 5.86 0 0 1-5.1 2.1Z"/><path fill="#fff" d="M224.1 303.9c.3.4.6.8.5 1.4 0 .4-.6 1-.2 1.2l1.5-1.8c-.4-.1-3.5-3.8-3.5-4.2l-2.1 1.1c.1.4.8 0 1.2 0 .5 0 .9.4 1.3.7-1.1.9-3.8 3.3-4.1 3.3-.1 0-.7-.4-.7 0 0 .2.6.7.7.8l1.4 1.7c.4-.2-.1-.5.1-.8.1-.2 3.2-2.7 3.9-3.4Zm-3.4-4.5c.3-.1.4.3.6 0l-1.6-1.9c-.2-.3-.5-.6-.5 0 .1.4-4 3.7-4.2 3.8-.3.1-.5-.3-.7.1l1.4 1.7c.2.2.3.4.5.6.2.2.1-.4.1-.4-.1-.3.3-.6.6-.8 1-1 3.5-3.1 3.8-3.1Zm-5.7-.6c-1.1.3-2.4-.1-2.7-1.3-.4-1.2.4-2.4 1.3-3.1.9-.7 2.3-.6 2.8.5.2.5.1 1.1-.1 1.6-.1.3-.4.6 0 .8.6-.7 1.1-1.4 1.7-2.1-.7-.4-1-1.1-1.5-1.7-.6-.7-1.3-1.4-2.3-1.5-1.9-.3-3.6 1.7-3.8 3.4-.1.9.2 1.8.8 2.6.5.6 1.2 1.1 1.6 1.8.2.1 1.8-.7 2.1-.8.2 0 .1-.1.1-.2 0 0-.5.2 0 0Zm25.5 23.6c-.7-.5-2.6-3-3-3.5l-.2-.3-.2.1c-.1.1.1.4 0 .6-.5.8-3.7 3.2-3.9 3.4-.4.2-.8-.1-1 .2.5.6 1.8 2.3 2 2.3.3 0 .1-.5.1-.6.1-.2 1.7-1.6 2.3-2.1.2-.2.4.3.6.5.2.3.3.7.2 1-.1.2-.5.6-.2.8.4-.5 1.5-1.8 1.7-2 .2-.2-.4 0-.3-.1-.2.1-.5.2-.7 0-.1 0-.7-.7-.6-.8.3-.2.6-.6 1-.7.6-.1 1 1 1.1 1.4.1.4.1.8-.1 1.1-.1.3-.3.5 0 .6l1.4-1.9c0 .1-.1.1-.2 0 .1.1-.1 0 0 0Zm-9.2-8.9c-.7 0-1.4.3-2 .8a3.56 3.56 0 0 0-.5 4.8c1.3 1.7 3.4 1.9 5.1.7 1.4-1.2 1.6-3.3.5-4.8-.8-1-2-1.5-3.1-1.5Zm1.2 1.4c.9-.1 1.5.8 1.1 1.8-.4 1-1.4 2-2.4 2.4-1.2.5-2-.5-1.5-1.7.4-1 1.4-2 2.4-2.4.1 0 .2-.1.4-.1Zm-2.8-4.6c.3 0 .6.4.8 0l-1.4-1.7c-.4.2 0 .4-.1.6-.2.3-1.7.5-2.1.6.1-.4.6-1.7.8-1.8.4-.3.6.3.8-.1l-1.8-2.1c-.2-.2-.4-.7-.6-.4 0 0 0 1-.1 1.1-.1.2-.6 2.4-1.2 2.9a11 11 0 0 1-1.8 1.4c-.3.1-.5-.4-.8 0l1.6 1.9c.1.1.4.6.5.6.3.1 0-.6.1-.7.1-.3 1.6-1.8 2.3-1.9.9-.2 2-.5 3-.4.2 0-.2 0 0 0Zm24.2 6.7c.1.4.2.9.1 1.3-.1.6-.6 1.9-1.4 1.5-.8-.4-1.4-1.1-2.1-1.7.5-.6 1-1.1 1.9-.8.2.1.4 0 .2-.2-.3-.2-2-1.3-2.1-1.2-.2.2.3.6.1 1-.1.3-.4.5-.6.8-.5-.4-1.2-.8-.7-1.5.4-.4.8-.8 1.4-.9.4-.1 1.2.3 1.3-.1-.7-.3-1.4-.7-2.1-1 .1.5-2.2 2.9-2.7 3.5-.1.1-.4.4-.4.5 0 .3.4.1.4.1.3-.1 4.4 3.3 4.5 3.6.1.2-.1.4 0 .5 0 0 .1.1.2.1.3-.3 2.9-3.9 3.5-4l-1.5-2.4c-.4.2-.1.7 0 .9Zm-4 4.4c-1.3-.9-3.6.8-4 1-.7.3-1.2-.4-.8-1 .3-.5.9-.8 1.5-.8.2 0 .9.1.9 0 .1-.1.1-.1 0-.2-.6-.4-1.1-.8-1.7-1.1-.1.7-.9 1.1-1.3 1.6-.5.6-1 1.3-1 2s.4 1.4 1.1 1.7c.7.4 1.5.1 2.2-.3.4-.3.8-.6 1.2-.8.6-.3 1.5 0 1.3.8-.2.7-.9 1.3-1.6 1.5-.4.1-.8.1-1.2-.1-.3-.1-.6-.5-.8-.1l2.3 1.6c.1-.5.3-.7.7-1 .5-.4.9-.9 1.3-1.4.8-.9 1.1-2.5-.1-3.4Zm17.6-28.1c0 .1 0 .1 0 0l-.9 1-.8 1c-.2.2-.3.3 0 .5.5-.3 3.5 4.8 3.3 5.5-.5.2-4.5-3.3-4.6-3.5 0-.1.2-.7-.1-.6-.1 0-.5.6-.6.7l-.6.7c.2.3.3 0 .6 0 .2.1 1.2.9 1.5 1.1-.5 0-1.7.1-1.9.1-.6.1-.3-.4-.7-.6l-1.5 1.8-.9 1v.1c.2.2.1.1.4 0 .3-.1 4.3 3.2 4.4 3.4.2.3-.1.6.3.8l1.2-1.4c.1-.1.1-.1 0-.1-.3-.2-.3.1-.7.1-.3-.1-2.9-2.2-3.8-3l5.3-.2c.2 0 .7.6.7.8-.1.2-.3.4 0 .5.3-.4.6-.7.9-1.1l.1-.2c.1 0 .1-.1.1-.2l.1-.1c.3-.3 1.2-1.3 1.1-1.4-.3-.3-.4.3-.8 0-.2-.2-.8-1.2-.9-1.4-.2-.3.4-.6.6-.7.5-.3 2.1-.8 2.3.2 0 .2-.2.4-.1.5 0 0 .1.2.2.1l2.1-2.6-.2-.2c-.5.5-5.5-1.5-5.8-1.8-.1-.2-.1-.8-.3-.8Zm-.2 2.6c.8.3 1.5.6 2.3 1l-.6.3c-.2.1-.4.3-.6.5l-1.1-1.8Zm-6.6 7.7c-1.1-.1-2.2.4-3 1.3-1.2 1.5-1.1 3.7.4 4.9 1.5 1.2 3.7.9 4.9-.5 1.2-1.5 1.1-3.7-.4-4.9-.5-.4-1.2-.7-1.9-.8Zm-1.4 1.6c.6 0 1.3.4 1.7.7.8.5 2.2 1.7 1.5 2.7 0-.1.1-.1-.1.1-.8.8-2.2.1-2.9-.5-.7-.5-2-1.7-1.2-2.7.3-.2.6-.3 1-.3Zm-3.1 4.3c-1.2-.1-2.4.5-3.3 1.6-.6.8-1.3 1.5-1.9 2.3.2.3.5-.1.8.1.3.2 4.1 3.3 4.1 3.5.1.3-.2.4.1.6.1.1 2.9-3.4 3.2-4 .4-1.1.1-2.4-.8-3.2.1.1.2.1 0 0-.8-.6-1.5-.9-2.2-.9Zm-1.1 1.6h.3c1.4.4 3.4 2.1 2.1 3.6l-.4.4c-.2.2-4.2-3-4-3.2.4-.5 1.3-.9 2-.8Z"/></g><rect width="318" height="109" x="18.5" y="263.5" stroke="#7B61FF" stroke-dasharray="10 5" rx="4.5"/><defs><clipPath id="a"><path fill="#fff" d="M38 290h114.9v32.9H38z"/></clipPath><clipPath id="b"><path fill="#fff" d="M173 283h138v70H173z"/></clipPath></defs></svg>